<svg width="20" height="21" viewBox="0 0 20 21" fill="none" xmlns="http://www.w3.org/2000/svg">
<path fill-rule="evenodd" clip-rule="evenodd" d="M10 0.812012C4.475 0.812012 0 5.28701 0 10.812C0 15.237 2.8625 18.9745 6.8375 20.2995C7.3375 20.387 7.525 20.087 7.525 19.8245C7.525 19.587 7.5125 18.7995 7.5125 17.962C5 18.4245 4.35 17.3495 4.15 16.787C4.0375 16.4995 3.55 15.612 3.125 15.3745C2.775 15.187 2.275 14.7245 3.1125 14.712C3.9 14.6995 4.4625 15.437 4.65 15.737C5.55 17.2495 6.9875 16.8245 7.5625 16.562C7.65 15.912 7.9125 15.4745 8.2 15.2245C5.975 14.9745 3.65 14.112 3.65 10.287C3.65 9.19951 4.0375 8.29951 4.675 7.59951C4.575 7.34951 4.225 6.32451 4.775 4.94951C4.775 4.94951 5.6125 4.68701 7.525 5.97451C8.325 5.74951 9.175 5.63701 10.025 5.63701C10.875 5.63701 11.725 5.74951 12.525 5.97451C14.4375 4.67451 15.275 4.94951 15.275 4.94951C15.825 6.32451 15.475 7.34951 15.375 7.59951C16.0125 8.29951 16.4 9.18701 16.4 10.287C16.4 14.1245 14.0625 14.9745 11.8375 15.2245C12.2 15.537 12.5125 16.137 12.5125 17.0745C12.5125 18.412 12.5 19.487 12.5 19.8245C12.5 20.087 12.6875 20.3995 13.1875 20.2995C15.1726 19.6293 16.8976 18.3534 18.1197 16.6515C19.3418 14.9496 19.9994 12.9072 20 10.812C20 5.28701 15.525 0.812012 10 0.812012Z" fill="#AAAAAA"/>
</svg>
