<svg width="166" height="41" viewBox="0 0 166 41" fill="none" xmlns="http://www.w3.org/2000/svg">
<path fill-rule="evenodd" clip-rule="evenodd" d="M23.773 2.80952L46.7832 22.1509H36.9435L46.7832 30.4217H36.9435L46.7832 38.6925H0.762695L10.6024 30.4217H0.762695L10.6024 22.1509H0.762695L23.773 2.80952Z" fill="#B973FF"/>
<path d="M76.6819 8.59703H81.7887V24.283C81.7887 26.0442 81.368 27.5853 80.5267 28.9062C79.6933 30.2271 78.5257 31.2571 77.0239 31.9962C75.5222 32.7274 73.7727 33.093 71.7756 33.093C69.7707 33.093 68.0173 32.7274 66.5155 31.9962C65.0138 31.2571 63.8462 30.2271 63.0127 28.9062C62.1793 27.5853 61.7626 26.0442 61.7626 24.283V8.59703H66.8693V23.8466C66.8693 24.7665 67.0698 25.5842 67.4708 26.2997C67.8797 27.0152 68.4537 27.5774 69.1928 27.9863C69.9318 28.3951 70.7928 28.5995 71.7756 28.5995C72.7663 28.5995 73.6273 28.3951 74.3585 27.9863C75.0976 27.5774 75.6676 27.0152 76.0686 26.2997C76.4775 25.5842 76.6819 24.7665 76.6819 23.8466V8.59703ZM85.8959 39.5443V14.6355H90.8494V17.6784H91.0735C91.2936 17.1909 91.612 16.6955 92.0288 16.1923C92.4533 15.6813 93.0037 15.2567 93.6799 14.9186C94.364 14.5726 95.2131 14.3996 96.2274 14.3996C97.5483 14.3996 98.767 14.7456 99.8835 15.4375C101 16.1216 101.892 17.1555 102.561 18.5393C103.229 19.9153 103.563 21.6411 103.563 23.7169C103.563 25.7375 103.237 27.4437 102.584 28.8354C101.94 30.2192 101.059 31.2689 99.9425 31.9844C98.8339 32.692 97.5916 33.0459 96.2156 33.0459C95.2406 33.0459 94.4111 32.8847 93.7271 32.5623C93.0509 32.2399 92.4966 31.835 92.0641 31.3475C91.6317 30.8522 91.3015 30.3529 91.0735 29.8497H90.9201V39.5443H85.8959ZM90.814 23.6933C90.814 24.7704 90.9634 25.71 91.2622 26.512C91.5609 27.314 91.9934 27.9391 92.5595 28.3873C93.1256 28.8276 93.8136 29.0477 94.6234 29.0477C95.4411 29.0477 96.1331 28.8236 96.6992 28.3755C97.2653 27.9194 97.6938 27.2904 97.9847 26.4884C98.2835 25.6786 98.4329 24.7469 98.4329 23.6933C98.4329 22.6475 98.2874 21.7276 97.9965 20.9335C97.7056 20.1394 97.2771 19.5182 96.711 19.07C96.1448 18.6219 95.449 18.3978 94.6234 18.3978C93.8057 18.3978 93.1138 18.614 92.5477 19.0465C91.9894 19.4789 91.5609 20.0922 91.2622 20.8863C90.9634 21.6804 90.814 22.6161 90.814 23.6933ZM107.007 32.751V8.59703H112.031V17.6784H112.185C112.405 17.1909 112.723 16.6955 113.14 16.1923C113.564 15.6813 114.115 15.2567 114.791 14.9186C115.475 14.5726 116.324 14.3996 117.339 14.3996C118.659 14.3996 119.878 14.7456 120.995 15.4375C122.111 16.1216 123.004 17.1555 123.672 18.5393C124.34 19.9153 124.674 21.6411 124.674 23.7169C124.674 25.7375 124.348 27.4437 123.695 28.8354C123.051 30.2192 122.17 31.2689 121.054 31.9844C119.945 32.692 118.703 33.0459 117.327 33.0459C116.352 33.0459 115.522 32.8847 114.838 32.5623C114.162 32.2399 113.608 31.835 113.175 31.3475C112.743 30.8522 112.413 30.3529 112.185 29.8497H111.961V32.751H107.007ZM111.925 23.6933C111.925 24.7704 112.075 25.71 112.373 26.512C112.672 27.314 113.105 27.9391 113.671 28.3873C114.237 28.8276 114.925 29.0477 115.735 29.0477C116.552 29.0477 117.244 28.8236 117.81 28.3755C118.376 27.9194 118.805 27.2904 119.096 26.4884C119.395 25.6786 119.544 24.7469 119.544 23.6933C119.544 22.6475 119.399 21.7276 119.108 20.9335C118.817 20.1394 118.388 19.5182 117.822 19.07C117.256 18.6219 116.56 18.3978 115.735 18.3978C114.917 18.3978 114.225 18.614 113.659 19.0465C113.101 19.4789 112.672 20.0922 112.373 20.8863C112.075 21.6804 111.925 22.6161 111.925 23.6933ZM136.212 33.1048C134.38 33.1048 132.795 32.7156 131.459 31.9372C130.13 31.151 129.104 30.0581 128.381 28.6585C127.657 27.2511 127.296 25.6196 127.296 23.764C127.296 21.8927 127.657 20.2573 128.381 18.8578C129.104 17.4503 130.13 16.3574 131.459 15.579C132.795 14.7928 134.38 14.3996 136.212 14.3996C138.044 14.3996 139.624 14.7928 140.953 15.579C142.29 16.3574 143.32 17.4503 144.043 18.8578C144.766 20.2573 145.128 21.8927 145.128 23.764C145.128 25.6196 144.766 27.2511 144.043 28.6585C143.32 30.0581 142.29 31.151 140.953 31.9372C139.624 32.7156 138.044 33.1048 136.212 33.1048ZM136.235 29.2128C137.069 29.2128 137.765 28.9769 138.323 28.5052C138.881 28.0256 139.302 27.373 139.585 26.5474C139.876 25.7218 140.021 24.7822 140.021 23.7286C140.021 22.6751 139.876 21.7355 139.585 20.9099C139.302 20.0843 138.881 19.4317 138.323 18.9521C137.765 18.4725 137.069 18.2327 136.235 18.2327C135.394 18.2327 134.686 18.4725 134.112 18.9521C133.546 19.4317 133.118 20.0843 132.827 20.9099C132.544 21.7355 132.402 22.6751 132.402 23.7286C132.402 24.7822 132.544 25.7218 132.827 26.5474C133.118 27.373 133.546 28.0256 134.112 28.5052C134.686 28.9769 135.394 29.2128 136.235 29.2128ZM151.945 14.6355L155.271 20.9689L158.679 14.6355H163.833L158.585 23.6933L163.975 32.751H158.844L155.271 26.4884L151.756 32.751H146.567L151.945 23.6933L146.756 14.6355H151.945Z" fill="white"/>
</svg>
