<svg width="13" height="14" viewBox="0 0 13 14" fill="none" xmlns="http://www.w3.org/2000/svg">
<path d="M12.7065 12.4209L8.59608 8.31051C9.23392 7.4859 9.57896 6.47769 9.57896 5.41726C9.57896 4.1479 9.08356 2.95768 8.18773 2.06027C7.2919 1.16285 6.09852 0.669037 4.83074 0.669037C3.56297 0.669037 2.36958 1.16443 1.47375 2.06027C0.576334 2.9561 0.0825195 4.1479 0.0825195 5.41726C0.0825195 6.68503 0.577917 7.87842 1.47375 8.77425C2.36958 9.67166 3.56138 10.1655 4.83074 10.1655C5.89118 10.1655 6.8978 9.82044 7.72241 9.18418L11.8328 13.293C11.8448 13.305 11.8591 13.3146 11.8749 13.3211C11.8906 13.3277 11.9075 13.331 11.9246 13.331C11.9416 13.331 11.9585 13.3277 11.9743 13.3211C11.99 13.3146 12.0043 13.305 12.0164 13.293L12.7065 12.6045C12.7185 12.5924 12.7281 12.5781 12.7346 12.5624C12.7411 12.5466 12.7445 12.5297 12.7445 12.5127C12.7445 12.4956 12.7411 12.4787 12.7346 12.463C12.7281 12.4472 12.7185 12.4329 12.7065 12.4209ZM7.3378 7.92432C6.66672 8.59382 5.77722 8.9626 4.83074 8.9626C3.88426 8.9626 2.99476 8.59382 2.32368 7.92432C1.65418 7.25324 1.2854 6.36374 1.2854 5.41726C1.2854 4.47078 1.65418 3.5797 2.32368 2.9102C2.99476 2.2407 3.88426 1.87192 4.83074 1.87192C5.77722 1.87192 6.6683 2.23912 7.3378 2.9102C8.0073 3.58128 8.37608 4.47078 8.37608 5.41726C8.37608 6.36374 8.0073 7.25482 7.3378 7.92432Z" fill="#888888"/>
</svg>
