<svg width="21" height="15" viewBox="0 0 21 15" fill="none" xmlns="http://www.w3.org/2000/svg">
<path d="M16.625 5.86668C16.3451 4.44811 15.5813 3.17073 14.4642 2.25271C13.3471 1.3347 11.9459 0.833017 10.5 0.833344C8.09167 0.833344 6 2.20001 4.95833 4.20001C3.73353 4.33237 2.60084 4.91268 1.77791 5.82944C0.954976 6.74621 0.499857 7.93474 0.5 9.16668C0.5 11.925 2.74167 14.1667 5.5 14.1667H16.3333C18.6333 14.1667 20.5 12.3 20.5 10C20.5 7.80001 18.7917 6.01668 16.625 5.86668ZM12.1667 8.33334V11.6667H8.83333V8.33334H6.33333L10.5 4.16668L14.6667 8.33334H12.1667Z" fill="#222222"/>
</svg>
