<svg width="21" height="15" viewBox="0 0 21 15" fill="none" xmlns="http://www.w3.org/2000/svg">
<path d="M16.5547 5.86671C16.2748 4.44814 15.511 3.17076 14.3939 2.25275C13.2768 1.33473 11.8756 0.833047 10.4297 0.833374C8.02135 0.833374 5.92969 2.20004 4.88802 4.20004C3.66322 4.3324 2.53053 4.91271 1.70759 5.82947C0.884663 6.74624 0.429544 7.93477 0.429688 9.16671C0.429688 11.925 2.67135 14.1667 5.42969 14.1667H16.263C18.563 14.1667 20.4297 12.3 20.4297 10C20.4297 7.80004 18.7214 6.01671 16.5547 5.86671ZM12.0964 8.33337V11.6667H8.76302V8.33337H6.26302L10.4297 4.16671L14.5964 8.33337H12.0964Z" fill="#888888"/>
</svg>
