<svg width="18" height="17" viewBox="0 0 18 17" fill="none" xmlns="http://www.w3.org/2000/svg">
<path d="M17.2998 6.08813H16.2221V3.31035C16.2221 3.16301 16.1635 3.0217 16.0593 2.91751C15.9552 2.81333 15.8138 2.7548 15.6665 2.7548H2.33317C2.18583 2.7548 2.04452 2.69626 1.94033 2.59208C1.83615 2.48789 1.77762 2.34658 1.77762 2.19924C1.77762 2.0519 1.83615 1.91059 1.94033 1.8064C2.04452 1.70222 2.18583 1.64368 2.33317 1.64368H15.4443C15.5916 1.64368 15.7329 1.58515 15.8371 1.48097C15.9413 1.37678 15.9998 1.23547 15.9998 1.08813C15.9998 0.940787 15.9413 0.799479 15.8371 0.695292C15.7329 0.591105 15.5916 0.532574 15.4443 0.532574H2.33317C2.11867 0.528151 1.90539 0.566033 1.70553 0.644055C1.50567 0.722078 1.32314 0.838712 1.16837 0.987294C1.0136 1.13588 0.889612 1.3135 0.8035 1.51001C0.717389 1.70652 0.670837 1.91807 0.666504 2.13257V13.7992C0.667231 14.101 0.727484 14.3997 0.843812 14.6782C0.960139 14.9566 1.13026 15.2094 1.34442 15.422C1.55858 15.6346 1.81259 15.8029 2.09188 15.9172C2.37118 16.0315 2.67028 16.0896 2.97206 16.0881H15.6665C15.8138 16.0881 15.9552 16.0296 16.0593 15.9254C16.1635 15.8212 16.2221 15.6799 16.2221 15.5326V12.7548H17.2998C17.37 12.7601 17.4404 12.751 17.5069 12.7282C17.5734 12.7053 17.6345 12.6691 17.6866 12.6217C17.7386 12.5744 17.7804 12.517 17.8094 12.4529C17.8384 12.3889 17.8541 12.3196 17.8554 12.2492V6.69369C17.8572 6.54101 17.8008 6.39338 17.6976 6.28087C17.5943 6.16835 17.4521 6.09943 17.2998 6.08813ZM16.7776 11.6437H12.0109C11.4416 11.6234 10.9036 11.378 10.515 10.9613C10.1265 10.5447 9.91923 9.99084 9.93873 9.42146C9.91923 8.85209 10.1265 8.29825 10.515 7.88159C10.9036 7.46493 11.4416 7.21952 12.0109 7.19924H16.7776V11.6437Z" fill="#888888"/>
</svg>
